<svg width="9" height="16" viewBox="0 0 9 16" fill="none" xmlns="http://www.w3.org/2000/svg">
<path d="M8.47661 5.6445C8.43562 5.55649 8.34735 5.50001 8.25011 5.50001H5.28761L8.21135 0.88376C8.2601 0.806768 8.26309 0.709268 8.21912 0.629521C8.17511 0.549512 8.09109 0.5 8.00009 0.5H4.0001C3.90536 0.5 3.81884 0.553496 3.77636 0.638252L0.0263616 8.13825C-0.0123982 8.21551 -0.00815013 8.3075 0.0373479 8.38124C0.0831096 8.45498 0.163354 8.49998 0.250102 8.49998H2.82084L0.0195939 15.153C-0.02816 15.2667 0.0143498 15.3987 0.119584 15.4632C0.160073 15.488 0.205072 15.5 0.249838 15.5C0.321586 15.5 0.392338 15.4692 0.441352 15.4112L8.44136 5.91122C8.50409 5.83675 8.51759 5.73274 8.47661 5.6445Z" fill="#D72B36"/>
</svg>
