<svg width="24" height="24" viewBox="0 0 24 24" fill="none" xmlns="http://www.w3.org/2000/svg">
<path d="M12.0003 2.94507C5.37284 2.94507 0 8.3689 0 15.0596C0 18.6875 1.56563 21.0535 1.56563 21.0535L22.4298 21.0545C22.4298 21.0545 24 18.4687 24 15.0594C24 8.3689 18.6272 2.94507 12.0003 2.94507ZM21.5497 19.5787L2.48877 19.5704C2.48877 19.5704 1.47309 17.6469 1.47309 15.0214C1.47309 9.15724 6.20419 4.40306 12.0405 4.40306C17.8765 4.40306 22.6079 9.15699 22.6079 15.0214C22.6081 17.6766 21.5497 19.5787 21.5497 19.5787Z" fill="#00A0FB"/>
<path d="M15.392 6.16197L15.2413 6.16172L12.0404 12.434L8.72432 6.10815L4.18409 17.5359H3.01074V18.4538H9.43874V17.5359H8.1633L9.43874 13.9644L12.0404 18.4538L14.5402 13.9644L15.8154 17.5359H14.5402V18.4538H20.9169V17.5359H19.8123L15.392 6.16197Z" fill="#00A0FB"/>
</svg>
