<svg width="96" height="18" viewBox="0 0 96 18" fill="none" xmlns="http://www.w3.org/2000/svg">
<path d="M9 0L12.174 4.63131L17.5595 6.21885L14.1357 10.6687L14.2901 16.2812L9 14.4L3.70993 16.2812L3.86429 10.6687L0.440492 6.21885L5.82596 4.63131L9 0Z" fill="#FFAA30"/>
<path d="M28.5 0L31.674 4.63131L37.0595 6.21885L33.6357 10.6687L33.7901 16.2812L28.5 14.4L23.2099 16.2812L23.3643 10.6687L19.9405 6.21885L25.326 4.63131L28.5 0Z" fill="#FFAA30"/>
<path d="M48 0L51.174 4.63131L56.5595 6.21885L53.1357 10.6687L53.2901 16.2812L48 14.4L42.7099 16.2812L42.8643 10.6687L39.4405 6.21885L44.826 4.63131L48 0Z" fill="#FFAA30"/>
<path d="M67.5 0L70.674 4.63131L76.0595 6.21885L72.6357 10.6687L72.7901 16.2812L67.5 14.4L62.2099 16.2812L62.3643 10.6687L58.9405 6.21885L64.326 4.63131L67.5 0Z" fill="#FFAA30"/>
<path d="M87 0L90.174 4.63131L95.5595 6.21885L92.1357 10.6687L92.2901 16.2812L87 14.4L81.7099 16.2812L81.8643 10.6687L78.4405 6.21885L83.826 4.63131L87 0Z" fill="#FFAA30"/>
</svg>
