<svg width="16" height="15" viewBox="0 0 16 15" fill="none" xmlns="http://www.w3.org/2000/svg">
<path d="M7.46008 1.20268C7.72007 0.823327 8.27993 0.823328 8.53992 1.20268L10.2217 3.65667C10.5149 4.08442 10.9466 4.39804 11.444 4.54467L14.2976 5.38585C14.7387 5.51589 14.9117 6.04834 14.6312 6.41284L12.8171 8.77067C12.5009 9.18166 12.336 9.68911 12.3502 10.2075L12.432 13.1813C12.4447 13.6411 11.9917 13.9701 11.5584 13.8161L8.75538 12.8193C8.26678 12.6455 7.73322 12.6455 7.24462 12.8193L4.44158 13.8161C4.00827 13.9701 3.55534 13.6411 3.56798 13.1813L3.64977 10.2075C3.66403 9.68911 3.49915 9.18166 3.18292 8.77067L1.36876 6.41284C1.08831 6.04834 1.26131 5.51589 1.70244 5.38586L4.55603 4.54467C5.05344 4.39804 5.4851 4.08442 5.77826 3.65667L7.46008 1.20268Z" stroke="#777777" stroke-width="1.6"/>
</svg>
