<svg width="13" height="12" viewBox="0 0 13 12" fill="none" xmlns="http://www.w3.org/2000/svg">
<path fill-rule="evenodd" clip-rule="evenodd" d="M3.5 10.3229V6.24997C3.5 5.60089 3.71053 4.96929 4.1 4.45L5.15 3.05C5.53947 2.53071 5.75 1.89911 5.75 1.25V0.75C5.75 0.33579 6.08579 0 6.5 0C7.32845 0 8 0.671572 8 1.5V4.5H10.6703C11.6169 4.5 12.3268 5.36599 12.1412 6.29415L11.2412 10.7942C11.1009 11.4953 10.4853 12 9.7703 12H5.7082C5.24247 12 4.78313 11.8916 4.36656 11.6833L4.32918 11.6646C3.821 11.4105 3.5 10.8911 3.5 10.3229ZM1.625 5.25C1.00368 5.25 0.5 5.75368 0.5 6.375V10.875C0.5 11.4963 1.00368 12 1.625 12C2.24632 12 2.75 11.4963 2.75 10.875V6.375C2.75 5.75368 2.24632 5.25 1.625 5.25Z" fill="#45D068"/>
</svg>
