<svg width="18" height="19" viewBox="0 0 18 19" fill="none" xmlns="http://www.w3.org/2000/svg">
<mask id="mask0_979_7271" style="mask-type:luminance" maskUnits="userSpaceOnUse" x="0" y="0" width="18" height="19">
<path d="M0 0.839966H18V18.84H0V0.839966Z" fill="white"/>
</mask>
<g mask="url(#mask0_979_7271)">
<path d="M6.50391 1.54309C3.29277 1.54309 0.672504 4.18403 0.703406 7.40086L0.703125 13.1447L0.799277 13.0568C1.61223 12.2438 2.85648 12.0295 3.88431 12.5446C4.66228 12.9345 5.54256 13.1451 6.47803 13.1447C9.67106 13.1461 12.2738 10.5938 12.3044 7.40086C12.3353 4.18403 9.76686 1.54309 6.50391 1.54309Z" stroke="#808185" stroke-width="1.2" stroke-miterlimit="10" stroke-linecap="round" stroke-linejoin="round"/>
<path d="M14.9414 7.66028C16.3825 8.73008 17.3151 10.4662 17.2966 12.393L17.2969 18.1368L17.2007 18.0489C16.3878 17.236 15.1435 17.0217 14.1157 17.5368C13.3377 17.9267 12.4574 18.1373 11.522 18.1368C9.60567 18.1377 7.91817 17.2418 6.85547 15.8165" stroke="#808185" stroke-width="1.2" stroke-miterlimit="10" stroke-linecap="round" stroke-linejoin="round"/>
<path d="M10.125 7.37903C10.125 7.86443 9.73153 8.25793 9.24609 8.25793C8.76066 8.25793 8.36719 7.86443 8.36719 7.37903C8.36719 6.89363 8.76066 6.50012 9.24609 6.50012C9.73153 6.50012 10.125 6.89363 10.125 7.37903Z" fill="#808185"/>
<path d="M7.34766 7.37903C7.34766 7.86443 6.95419 8.25793 6.46875 8.25793C5.98331 8.25793 5.58984 7.86443 5.58984 7.37903C5.58984 6.89363 5.98331 6.50012 6.46875 6.50012C6.95419 6.50012 7.34766 6.89363 7.34766 7.37903Z" fill="#808185"/>
<path d="M4.57031 7.37903C4.57031 7.86443 4.17684 8.25793 3.69141 8.25793C3.20597 8.25793 2.8125 7.86443 2.8125 7.37903C2.8125 6.89363 3.20597 6.50012 3.69141 6.50012C4.17684 6.50012 4.57031 6.89363 4.57031 7.37903Z" fill="#808185"/>
</g>
</svg>
