<svg width="12" height="10" viewBox="0 0 12 10" fill="none" xmlns="http://www.w3.org/2000/svg">
<path fill-rule="evenodd" clip-rule="evenodd" d="M6.20549 9.69495C6.33674 9.82618 6.51475 9.8999 6.70039 9.8999C6.88603 9.8999 7.06404 9.82618 7.19529 9.69495L11.3953 5.49495C11.5265 5.36368 11.6003 5.18566 11.6003 5.00005C11.6003 4.81441 11.5265 4.6364 11.3953 4.50515L7.19529 0.305149C7.06327 0.177609 6.88645 0.10705 6.70291 0.10866C6.51937 0.11027 6.34381 0.18391 6.21403 0.31369C6.08425 0.44347 6.01061 0.619029 6.009 0.802569C6.00739 0.986109 6.07795 1.16293 6.20549 1.29495L9.21059 4.30005L1.10039 4.30005C0.914737 4.30005 0.736692 4.37383 0.605414 4.50508C0.474143 4.63633 0.400391 4.81441 0.400391 5.00005C0.400391 5.1857 0.474143 5.36375 0.605414 5.49503C0.736692 5.6263 0.914737 5.70005 1.10039 5.70005L9.21059 5.70005L6.20549 8.70515C6.07424 8.83642 6.00053 9.01444 6.00053 9.20005C6.00053 9.38566 6.07424 9.56368 6.20549 9.69495Z" fill="#00ADE6"/>
</svg>
