<svg width="10" height="15" viewBox="0 0 10 15" fill="none" xmlns="http://www.w3.org/2000/svg">
<path d="M2.86227 10.254L4.34327 11.246L2.68827 14.572C2.54127 14.832 2.09527 14.946 1.64327 14.764C1.19227 14.582 1.00327 13.997 1.19527 13.646L2.86227 10.254ZM5.70027 4.83997C6.51827 4.83997 6.77127 5.12197 7.71427 6.31597C7.99427 6.66097 8.31827 6.96297 8.70227 7.20697L9.37927 7.63897C9.68927 7.83997 9.76227 8.07897 9.55627 8.38097C9.34927 8.68297 8.83627 8.87097 8.52627 8.66897L7.84927 8.23697C7.52527 8.03597 6.98327 7.64897 6.22527 7.07697L5.96327 9.14997L7.20727 10.142C7.62027 10.545 7.84327 11.099 7.97727 11.646L8.52727 13.741C8.63027 14.158 8.45327 14.668 7.87827 14.803C7.30427 14.939 6.95027 14.524 6.86127 14.179L6.18827 12.114C6.12205 11.844 5.97893 11.5991 5.77627 11.409C5.77627 11.409 3.34727 9.78197 3.20027 9.63797C2.77327 9.23497 2.78227 8.96597 2.85627 8.31897C2.87627 8.10897 2.94227 7.55297 3.05627 6.65297C2.57827 7.17297 2.26527 7.56597 2.11727 7.83497L1.66927 8.81797C1.61252 8.92008 1.52898 9.00478 1.42766 9.06293C1.32634 9.12108 1.21107 9.15048 1.09427 9.14797C0.982744 9.14505 0.872791 9.12096 0.770268 9.07697C0.446268 8.90397 0.258268 8.42497 0.435268 8.10897L0.679268 7.58497C1.17927 6.67897 2.13227 4.83997 3.20027 4.83997H5.70027ZM4.95027 0.839966C5.4144 0.839966 5.85952 1.02434 6.18771 1.35253C6.51589 1.68072 6.70027 2.12584 6.70027 2.58997C6.70027 3.05409 6.51589 3.49921 6.18771 3.8274C5.85952 4.15559 5.4144 4.33997 4.95027 4.33997C4.48614 4.33997 4.04102 4.15559 3.71283 3.8274C3.38464 3.49921 3.20027 3.05409 3.20027 2.58997C3.20027 2.12584 3.38464 1.68072 3.71283 1.35253C4.04102 1.02434 4.48614 0.839966 4.95027 0.839966Z" fill="#808185"/>
</svg>
