<svg width="24" height="24" viewBox="0 0 24 24" fill="none" xmlns="http://www.w3.org/2000/svg">
<path d="M11.9996 21.5999C13.0436 21.5999 14.0516 21.4319 14.9924 21.1247C14.5278 20.5206 14.1356 19.8641 13.8236 19.1687C13.2284 20.0099 12.5828 20.3999 11.9996 20.3999C11.2112 20.3999 10.3112 19.6919 9.57324 18.1103C9.29234 17.4952 9.06821 16.8558 8.90364 16.1999H13.2044C13.2188 15.7895 13.2752 15.3875 13.3688 14.9999H8.64684C8.48009 14.0087 8.3974 13.0051 8.39964 11.9999C8.39964 10.9403 8.48724 9.92991 8.64684 8.99991H15.3524C15.4964 9.84471 15.5828 10.7555 15.5972 11.7095C15.9596 11.4623 16.3544 11.2595 16.7804 11.1095C16.7494 10.4029 16.6785 9.69854 16.568 8.99991H19.8476C20.0996 9.65871 20.2712 10.3571 20.3504 11.0831C20.7992 11.2355 21.2156 11.4455 21.5948 11.7035C21.5366 9.81832 20.9243 7.99205 19.8345 6.45271C18.7447 4.91337 17.2255 3.72916 15.4667 3.04794C13.708 2.36673 11.7875 2.21868 9.94511 2.62228C8.10271 3.02589 6.42002 3.96326 5.10712 5.31738C3.79422 6.67149 2.90928 8.38234 2.5628 10.2363C2.21631 12.0903 2.42363 14.0053 3.15887 15.7422C3.8941 17.4791 5.12468 18.9609 6.69696 20.0026C8.26924 21.0444 10.1136 21.5999 11.9996 21.5999ZM11.9996 3.59991C12.788 3.59991 13.688 4.30791 14.426 5.88951C14.6864 6.44871 14.9132 7.09191 15.0968 7.79991H8.90244C9.08604 7.09191 9.31284 6.44871 9.57444 5.88951C10.31 4.30791 11.21 3.59991 11.9996 3.59991ZM8.48604 5.38191C8.13169 6.15808 7.85708 6.96824 7.66644 7.79991H4.72284C5.73593 6.04895 7.34511 4.72088 9.25644 4.05831C8.96724 4.45431 8.70924 4.90311 8.48604 5.38191ZM7.43004 8.99991C7.27474 9.99232 7.1977 10.9954 7.19964 11.9999C7.19964 13.0439 7.28004 14.0543 7.43124 14.9999H4.15164C3.78567 14.0421 3.59858 13.0253 3.59964 11.9999C3.59964 10.9439 3.79524 9.93111 4.15164 8.99991H7.43004ZM7.66644 16.1999C7.87764 17.0915 8.15484 17.9063 8.48604 18.6179C8.70924 19.0967 8.96724 19.5455 9.25644 19.9415C7.34511 19.2789 5.73593 17.9509 4.72284 16.1999H7.66644ZM14.7428 4.05831C16.6542 4.72079 18.2634 6.04888 19.2764 7.79991H16.3316C16.141 6.96824 15.8664 6.15809 15.512 5.38191C15.2984 4.91698 15.0404 4.47373 14.7416 4.05831H14.7428ZM22.7996 16.4183C22.7996 13.9787 21.0416 12.0011 18.6008 12.0011C16.1612 12.0011 14.3996 13.9787 14.3996 16.4183C14.3996 18.2471 15.578 20.6543 18.3068 22.7015C18.4808 22.8335 18.7208 22.8335 18.8948 22.7015C21.626 20.6543 22.7996 18.2471 22.7996 16.4183ZM20.3996 16.1999C20.3996 16.6773 20.21 17.1351 19.8724 17.4727C19.5349 17.8103 19.077 17.9999 18.5996 17.9999C18.1223 17.9999 17.6644 17.8103 17.3268 17.4727C16.9893 17.1351 16.7996 16.6773 16.7996 16.1999C16.7996 15.7225 16.9893 15.2647 17.3268 14.9271C17.6644 14.5895 18.1223 14.3999 18.5996 14.3999C19.077 14.3999 19.5349 14.5895 19.8724 14.9271C20.21 15.2647 20.3996 15.7225 20.3996 16.1999Z" fill="#777777"/>
</svg>
