<svg width="14" height="10" viewBox="0 0 14 10" fill="none" xmlns="http://www.w3.org/2000/svg">
<path d="M13.862 3.86535L12.5678 9.58424C12.5421 9.70389 12.4755 9.81086 12.3795 9.88672C12.2835 9.96258 12.164 10.0026 12.0416 9.99987H1.96125C1.83891 10.0026 1.71944 9.96258 1.62341 9.88672C1.52738 9.81086 1.46081 9.70389 1.43514 9.58424L0.182979 3.86535C0.161906 3.76872 0.168498 3.6681 0.201999 3.57505C0.235499 3.48199 0.294551 3.40026 0.372381 3.33923C0.450426 3.27799 0.544196 3.24006 0.642872 3.22982C0.741547 3.21958 0.841108 3.23745 0.930065 3.28136L4.00259 4.77027L6.54899 0.266714C6.59488 0.185746 6.66142 0.118399 6.74183 0.0715429C6.82224 0.0246872 6.91364 0 7.00671 0C7.09978 0 7.19118 0.0246872 7.27159 0.0715429C7.352 0.118399 7.41854 0.185746 7.46443 0.266714L10.0108 4.77553L13.1044 3.2761C13.194 3.22861 13.2954 3.20802 13.3964 3.21681C13.4974 3.2256 13.5938 3.2634 13.6738 3.32565C13.7539 3.38791 13.8142 3.47197 13.8476 3.56772C13.881 3.66347 13.886 3.76682 13.862 3.86535Z" fill="#EB9249"/>
</svg>
