<svg width="14" height="14" viewBox="0 0 14 14" fill="none" xmlns="http://www.w3.org/2000/svg">
<path fill-rule="evenodd" clip-rule="evenodd" d="M11.5926 2.34489C10.3647 1.11554 8.73173 0.438221 6.99201 0.4375C3.40715 0.4375 0.48959 3.35498 0.488148 6.9408C0.487667 8.08707 0.787113 9.20603 1.35629 10.1923L0.433594 13.5625L3.88139 12.6581C4.8314 13.1763 5.90093 13.4494 6.98936 13.4497H6.99209C10.5765 13.4497 13.4944 10.532 13.4958 6.94601C13.4965 5.20813 12.8206 3.57415 11.5926 2.34489ZM6.99201 12.3513H6.98977C6.01981 12.3509 5.06852 12.0903 4.23843 11.5978L4.04113 11.4806L1.99515 12.0174L2.54125 10.0226L2.41268 9.81806C1.87154 8.95737 1.5858 7.96258 1.58628 6.9412C1.5874 3.96076 4.01245 1.53595 6.99417 1.53595C8.43805 1.53643 9.79533 2.09943 10.8159 3.12122C11.8365 4.14301 12.3982 5.50117 12.3977 6.94561C12.3965 9.92629 9.97157 12.3513 6.99201 12.3513ZM9.95715 8.30273C9.79469 8.22134 8.99569 7.82832 8.84668 7.77401C8.69784 7.71978 8.58937 7.69278 8.48115 7.8554C8.37276 8.01802 8.06138 8.38412 7.96653 8.4925C7.87168 8.60097 7.77699 8.61459 7.61445 8.5332C7.45191 8.45189 6.92832 8.28022 6.30756 7.72658C5.8245 7.29568 5.49838 6.76352 5.40353 6.6009C5.30885 6.43812 5.40273 6.35865 5.47483 6.26925C5.65075 6.05079 5.82691 5.82176 5.88106 5.71337C5.9353 5.60491 5.90814 5.50998 5.86744 5.42867C5.82691 5.34736 5.50191 4.54747 5.36652 4.22199C5.2345 3.90524 5.10064 3.94802 5.00083 3.94305C4.90614 3.93833 4.79775 3.93737 4.68937 3.93737C4.58106 3.93737 4.40498 3.97798 4.25598 4.14076C4.10706 4.30346 3.68729 4.69656 3.68729 5.49644C3.68729 6.29633 4.2696 7.06905 4.35083 7.17752C4.43206 7.28599 5.49678 8.92741 7.12691 9.63125C7.51464 9.79883 7.81729 9.89873 8.05337 9.97363C8.4427 10.0973 8.79686 10.0799 9.07692 10.038C9.38918 9.99134 10.0383 9.64487 10.1738 9.26531C10.3092 8.88568 10.3092 8.56036 10.2685 8.4925C10.228 8.42473 10.1196 8.38412 9.95715 8.30273Z" fill="#808185"/>
</svg>
