<svg width="13" height="12" viewBox="0 0 13 12" fill="none" xmlns="http://www.w3.org/2000/svg">
<path d="M1.36768 5.28499C4.72318 3.82281 6.96018 2.86053 8.07867 2.39188C11.278 1.06093 11.9403 0.829735 12.3715 0.823486C12.4652 0.823486 12.6776 0.848481 12.8151 0.954707C12.9276 1.04844 12.9651 1.17966 12.9776 1.26714C12.9901 1.35462 13.0088 1.56082 12.9963 1.71704C12.8214 3.53538 12.0715 7.95314 11.6904 9.99018C11.5279 10.8525 11.2092 11.1399 10.903 11.1712C10.2344 11.2336 9.7283 10.7275 9.07845 10.3026C8.06618 9.64026 7.49131 9.22785 6.51028 8.578C5.37303 7.82816 6.11037 7.41576 6.76022 6.74716C6.92893 6.5722 9.87202 3.89155 9.92826 3.64785C9.93451 3.61661 9.94076 3.50413 9.87202 3.44165C9.80329 3.37916 9.70956 3.40416 9.63458 3.41665C9.5346 3.44165 7.91621 4.51016 4.77941 6.62218C4.32327 6.93461 3.90461 7.09083 3.52969 7.08458C3.11729 7.07833 2.32996 6.85338 1.7426 6.65968C1.02401 6.42848 0.449136 6.30351 0.499125 5.9036C0.524119 5.69739 0.811554 5.48494 1.35518 5.26624L1.36768 5.28499Z" fill="#808185"/>
</svg>
